<?xml version="1.0" encoding="UTF-8"?>
<!DOCTYPE svg PUBLIC "-//W3C//DTD SVG 1.1//EN" "http://www.w3.org/Graphics/SVG/1.1/DTD/svg11.dtd">
<!-- Creator: CorelDRAW -->
<svg xmlns="http://www.w3.org/2000/svg" xml:space="preserve" width="67.7332mm" height="21.29mm" version="1.1" style="shape-rendering:geometricPrecision; text-rendering:geometricPrecision; image-rendering:optimizeQuality; fill-rule:evenodd; clip-rule:evenodd"
viewBox="0 0 6773.32 2129"
 xmlns:xlink="http://www.w3.org/1999/xlink"
 xmlns:xodm="http://www.corel.com/coreldraw/odm/2003">
 <defs>
  <style type="text/css">
   <![CDATA[
    .fil1 {fill:#FF7F00}
    .fil0 {fill:white}
    .fil2 {fill:white;fill-rule:nonzero}
   ]]>
  </style>
 </defs>
 <g id="Layer_x0020_1">
  <metadata id="CorelCorpID_0Corel-Layer"/>
  <path class="fil0" d="M4481.06 1051.09c31.83,-43.38 11.94,-114.24 -10.03,-157.39 -166.16,-360.97 -819.11,-327.63 -842.68,151.22 144.49,-280.04 451.02,-267.96 650.63,-60.36 28.23,29.26 55.04,52.72 80.43,70.4 38.79,25.67 90.35,43.21 121.65,-3.87z"/>
  <path class="fil0" d="M4521.97 751.94c1.02,26.86 1.08,53.82 0.62,80.69 -0.08,4.68 -0.08,4.68 -7.72,-3.73 -121.66,-133.88 -329.95,-272.44 -409.78,-383.22 -109.65,-152.14 -8.78,-248.5 134.58,-165.09 184.21,107.19 274.56,266.98 282.3,471.35z"/>
  <path class="fil1" d="M4588.25 568.15c434.8,459.63 74.8,1177.46 -551.39,1177.46 -409.6,0 -741.65,-315.91 -741.65,-705.61 0,-274.82 165.15,-512.92 406.17,-629.43 33.05,-476.98 485.5,-365.18 464.62,-246.86 -241.66,0 -252.47,259.21 -60.52,385.73l-0.01 0.02 1.28 0.84 -0.04 0 -0.05 0.01 -0.04 0.01 -0.04 0 -0.05 0.01 -0.04 0.01 -0.04 0 -0.04 0.01 -0.04 0 -0.04 0.01 -0.04 0.01 -0.03 0 -0.02 0.01 -0.02 0 -0.04 0.01 -0.03 0 -0.04 0.01 -0.03 0 -0.03 0.01 -0.04 0.01 -0.03 0 -0.03 0.01 -0.03 0 -0.03 0.01 -0.02 0 -0.01 0.01 -0.03 0 0 0 -0.03 0.01 -0.03 0 -0.02 0.01 -0.03 0 -0.02 0.01 -0.03 0 -0.02 0.01 -0.03 0 -0.02 0.01 -0.02 0 -0.02 0.01 -0.02 0.01 -0.02 0 0 0 -0.02 0 -0.02 0.01 -0.02 0 -0.02 0.01 -0.01 0.01 -0.02 0 0 0 -0.03 0.01 0 0 -0.02 0 -0.01 0.01 -0.01 0 -0.03 0.02 -0.02 0 -0.01 0.01 -0.01 0 -0.01 0.01 -0.01 0 0 0.01 -0.01 0c-0.02,0.01 -0.02,0.03 -0.02,0.04l-0.01 0c-0.14,0.74 -4.21,1.15 -14.26,2.14 -16.89,1.68 -50.66,5.02 -80.23,7.82 -29.57,2.8 -54.94,5.05 -80.9,9.85 -25.96,4.81 -52.52,12.17 -77.44,21.2 -24.92,9.03 -48.19,19.73 -71.22,32.19 -23.04,12.47 -45.84,26.7 -66.61,41.82 -20.77,15.13 -39.52,31.14 -59.34,52.06 -19.83,20.92 -40.76,46.74 -55.46,67.12 -14.7,20.37 -23.19,35.3 -31.73,53.33 -8.55,18.04 -17.16,39.19 -24.4,62.17 -7.23,22.99 -13.09,47.83 -16.94,73.26 -3.84,25.44 -5.67,51.48 -5.4,77.63 0.27,26.15 2.64,52.43 6.38,76.21 3.73,23.78 8.84,45.07 14.06,63.09 5.23,18.02 10.58,32.77 19.4,52.06 8.82,19.29 21.11,43.1 33.82,64.09 12.71,20.99 25.85,39.14 39.38,55.57 13.54,16.44 27.48,31.16 43.84,46.05 16.37,14.89 35.15,29.94 55.21,43.66 20.06,13.73 41.4,26.13 60.49,35.88 19.1,9.75 35.94,16.86 56.91,23.99 20.97,7.13 46.05,14.27 71.39,19.61 25.34,5.35 50.94,8.88 78.1,10.46 27.17,1.59 55.91,1.23 84,-1.26 28.09,-2.49 55.54,-7.11 81.77,-13.43 26.23,-6.32 51.25,-14.36 75.42,-23.94 24.17,-9.58 47.5,-20.71 70.92,-33.99 23.43,-13.28 46.95,-28.7 66.99,-43.4 20.04,-14.69 36.59,-28.67 53.73,-45.04 17.15,-16.37 34.88,-35.13 50.6,-53.64 15.73,-18.5 29.44,-36.75 42.97,-57.19 13.54,-20.45 26.89,-43.09 38.49,-65.4 11.6,-22.3 21.44,-44.27 29.89,-65.94 8.46,-21.66 15.54,-43.02 22.03,-67.34 6.5,-24.3 12.41,-51.56 16.73,-78.42 4.32,-26.84 7.05,-53.28 8.34,-81.03 1.3,-27.75 1.16,-56.8 -0.2,-83.79 -1.36,-26.98 -3.95,-51.9 -7.31,-75.4 -3.36,-23.5 -7.49,-45.59 -13.6,-68.94 -6.12,-23.36 -14.22,-47.98 -21.34,-71.43 -4.24,-13.99 -8.14,-27.55 -11.44,-44.19z"/>
  <path class="fil2" d="M6759.87 825.92c2.99,13.47 5.23,25.43 6.73,35.89 1.49,10.47 2.98,25.8 4.48,45.98 1.5,20.18 2.24,40 2.24,59.44 0,19.43 0,51.95 0,97.56 0,45.59 0,90.83 0,135.68 0,44.86 -0.37,110.28 -1.12,196.25 -0.74,85.97 -1.12,173.07 -1.12,261.29l-313.99 0c0,-61.31 0.37,-127.1 1.12,-197.37 0.74,-70.27 1.12,-125.23 1.12,-164.85 0,-39.62 0,-82.6 0,-128.96 0,-46.35 -0.38,-81.86 -1.12,-106.53 -0.75,-24.68 -2.24,-51.59 -4.49,-80.74 -2.24,-29.15 -4.86,-50.84 -7.84,-65.04 -3,-14.21 -7.1,-29.91 -12.34,-47.1 -5.23,-17.19 -10.84,-31.03 -16.83,-41.5 -5.98,-10.46 -14.19,-20.93 -24.66,-31.4 -44.86,-50.83 -101.68,-76.25 -170.46,-76.25 -68.78,0 -125.6,25.42 -170.45,76.25 -8.97,10.47 -16.82,20.94 -23.55,31.4 -6.73,10.47 -12.71,24.31 -17.94,41.5 -5.24,17.19 -9.34,32.89 -12.34,47.1 -2.99,14.2 -5.6,35.89 -7.84,65.04 -2.25,29.15 -3.74,56.06 -4.49,80.74 -0.75,24.67 -1.12,60.18 -1.12,106.53 0,46.36 0.37,89.34 1.12,128.96 0.75,39.62 1.12,94.58 1.12,164.85 0,70.27 0,136.06 0,197.37l-318.48 0c0,-61.31 0.37,-127.1 1.13,-197.37 0.74,-70.27 1.12,-125.23 1.12,-164.85 0,-39.62 0,-82.6 0,-128.96 0,-46.35 -0.38,-81.86 -1.12,-106.53 -0.76,-24.68 -2.25,-51.59 -4.49,-80.74 -2.25,-29.15 -4.86,-50.84 -7.86,-65.04 -2.98,-14.21 -6.72,-29.91 -11.21,-47.1 -4.49,-17.19 -10.09,-31.03 -16.82,-41.5 -6.72,-10.46 -15.33,-20.93 -25.79,-31.4 -44.85,-50.83 -101.68,-76.25 -170.46,-76.25 -68.78,0 -125.59,25.42 -170.45,76.25 -8.97,10.47 -16.82,20.94 -23.55,31.4 -6.72,10.47 -12.7,24.31 -17.94,41.5 -5.23,17.19 -9.34,32.89 -12.34,47.1 -2.98,14.2 -5.6,35.89 -7.84,65.04 -2.24,29.15 -3.74,56.06 -4.49,80.74 -0.75,24.67 -1.12,60.18 -1.12,106.53 0,46.36 0.37,89.34 1.12,128.96 0.75,39.62 1.12,94.58 1.12,164.85 0,70.27 0,136.06 0,197.37l-313.99 0c0,-88.22 -0.37,-175.32 -1.13,-261.29 -0.74,-85.97 -1.11,-151.39 -1.11,-196.25 0,-44.85 0,-90.09 0,-135.68 0,-45.61 0,-78.13 0,-97.56 0,-19.44 0.74,-39.26 2.24,-59.44 1.5,-20.18 2.99,-35.51 4.48,-45.98 1.5,-10.46 4.49,-22.42 8.98,-35.89 29.9,-133.07 95.69,-237.36 197.36,-312.86 101.68,-75.51 214.56,-114.02 338.66,-115.51 157.01,1.49 288.58,56.08 394.74,163.73 106.16,-107.65 237.74,-162.24 394.73,-163.73 125.6,1.49 238.87,40 339.79,115.51 100.92,75.5 167.09,179.79 198.49,312.86z"/>
  <path class="fil2" d="M2563.88 1658.01l0 -630.23c0,-173.44 61.31,-321.84 183.91,-445.19 122.61,-123.36 271.39,-185.04 446.32,-185.04l0 316.23c-86.72,0 -161.11,30.66 -223.15,91.97 -62.06,61.3 -93.09,135.31 -93.09,222.03l0 630.23 -313.99 0z"/>
  <path class="fil2" d="M2273.44 582.59c123.36,123.35 185.04,271.75 185.04,445.19 0,173.44 -61.68,321.84 -185.04,445.19 -123.35,123.36 -271.75,185.04 -445.19,185.04 -53.83,0 -106.16,-6.73 -156.99,-20.19l0 -336.42c47.83,28.41 100.17,42.61 156.99,42.61 86.72,0 160.73,-31.02 222.03,-93.07 61.31,-62.05 91.96,-136.44 91.96,-223.16 0,-86.72 -30.65,-160.73 -91.96,-222.03 -61.3,-61.31 -135.31,-91.97 -222.03,-91.97 -86.72,0 -161.11,30.66 -223.16,91.97 -62.06,61.3 -93.08,135.31 -93.08,222.03l0 1101.22 -313.99 0 0 -1101.22c0,-173.44 61.3,-321.84 183.9,-445.19 122.61,-123.36 271.01,-185.04 445.21,-185.04 174.18,0 322.96,61.68 446.31,185.04z"/>
  <path class="fil2" d="M1101.58 1637.82c-50.84,13.46 -103.16,20.19 -156.99,20.19 -174.94,0 -323.72,-61.69 -446.32,-185.04 -122.6,-123.35 -183.91,-271.75 -183.91,-445.19l0 -630.23c210.07,0 420.15,0 630.23,0l0 314 -316.23 0 0 316.23c0,86.71 31.02,161.11 93.07,223.16 62.04,62.04 136.43,93.07 223.16,93.07 55.32,0 107.65,-14.2 156.99,-42.61l0 336.42z"/>
  <rect class="fil0" x="0.01" y="-0" width="944.59" height="314"/>
 </g>
</svg>
