<?xml version="1.0" encoding="UTF-8"?>
<!DOCTYPE svg PUBLIC "-//W3C//DTD SVG 1.1//EN" "http://www.w3.org/Graphics/SVG/1.1/DTD/svg11.dtd">
<!-- Creator: CorelDRAW -->
<svg xmlns="http://www.w3.org/2000/svg" xml:space="preserve" width="21.6747mm" height="21.6747mm" version="1.1" style="shape-rendering:geometricPrecision; text-rendering:geometricPrecision; image-rendering:optimizeQuality; fill-rule:evenodd; clip-rule:evenodd"
viewBox="0 0 2167.46 2167.46"
 xmlns:xlink="http://www.w3.org/1999/xlink"
 xmlns:xodm="http://www.corel.com/coreldraw/odm/2003">
 <defs>
  <style type="text/css">
   <![CDATA[
    .fil0 {fill:white}
   ]]>
  </style>
 </defs>
 <g id="Layer_x0020_1">
  <metadata id="CorelCorpID_0Corel-Layer"/>
  <g id="_2311077220672">
   <path class="fil0" d="M1731.92 1273.91c46.48,-55.81 17.43,-146.98 -14.66,-202.49 -242.67,-464.41 -1196.3,-421.52 -1230.71,194.55 211.03,-360.29 658.71,-344.74 950.24,-77.65 41.22,37.64 80.38,67.82 117.47,90.57 56.65,33.03 131.95,55.59 177.67,-4.98z"/>
   <path class="fil0" d="M1791.66 889.05c1.49,34.56 1.58,69.24 0.9,103.82 -0.12,6.01 -0.12,6.01 -11.27,-4.81 -177.69,-172.25 -481.9,-350.51 -598.48,-493.03 -160.15,-195.74 -12.83,-319.71 196.55,-212.41 269.05,137.92 401,343.5 412.3,606.43z"/>
   <path class="fil0" d="M1888.46 652.59c635.02,591.34 109.25,1514.87 -805.31,1514.87 -598.21,0 -1083.16,-406.45 -1083.16,-907.82 0,-353.57 241.2,-659.89 593.2,-809.79 48.28,-613.67 709.08,-469.83 678.58,-317.61 -352.94,0 -368.73,333.5 -88.39,496.27l-0.01 0.02 1.87 1.08 -0.07 0.01 -0.06 0.01 -0.07 0.01 -0.06 0.01 -0.06 0 -0.06 0.01 -0.06 0.01 -0.06 0.01 -0.06 0.01 -0.06 0.01 -0.05 0 -0.06 0.01 -0.02 0 -0.03 0.01 -0.05 0.01 -0.05 0 -0.06 0.01 -0.05 0.01 -0.04 0.01 -0.05 0.01 -0.05 0 -0.05 0.01 -0.04 0.01 -0.05 0 -0.02 0.01 -0.02 0 -0.03 0.01 -0.01 0 -0.04 0.01 -0.04 0 -0.04 0.01 -0.04 0.01 -0.04 0.01 -0.03 0 -0.04 0.01 -0.03 0.01 -0.03 0 -0.03 0.01 -0.04 0.01 -0.03 0 -0.02 0.01 -0.01 0 -0.03 0 -0.02 0.01 -0.03 0.01 -0.02 0.01 -0.03 0 -0.02 0.01 -0.01 0 -0.03 0.01 -0.01 0 -0.02 0.01 -0.02 0 -0.01 0.01 -0.06 0.01 -0.01 0.01 -0.02 0.01 -0.02 0.01 -0.01 0 -0.01 0.01 -0.01 0.01 -0.01 0c-0.02,0.02 -0.03,0.03 -0.02,0.04l-0.02 0c-0.21,0.97 -6.15,1.48 -20.83,2.77 -24.67,2.15 -73.99,6.45 -117.18,10.05 -43.19,3.6 -80.23,6.5 -118.15,12.68 -37.92,6.18 -76.71,15.65 -113.1,27.27 -36.39,11.62 -70.37,25.38 -104.02,41.42 -33.64,16.04 -66.95,34.35 -97.28,53.8 -30.34,19.46 -57.71,40.07 -86.67,66.98 -28.96,26.91 -59.52,60.14 -80.99,86.35 -21.47,26.21 -33.87,45.42 -46.35,68.62 -12.49,23.2 -25.06,50.41 -35.63,79.98 -10.56,29.58 -19.12,61.53 -24.74,94.25 -5.61,32.73 -8.28,66.23 -7.89,99.88 0.4,33.65 3.86,67.45 9.31,98.04 5.46,30.6 12.91,57.99 20.55,81.18 7.63,23.18 15.44,42.16 28.33,66.97 12.88,24.82 30.82,55.46 49.39,82.46 18.57,27 37.75,50.35 57.52,71.5 19.78,21.15 40.13,40.09 64.03,59.24 23.9,19.15 51.33,38.52 80.63,56.17 29.3,17.66 60.46,33.61 88.34,46.16 27.89,12.55 52.5,21.69 83.12,30.86 30.62,9.17 67.26,18.37 104.27,25.24 37.01,6.87 74.39,11.42 114.06,13.46 39.68,2.04 81.65,1.58 122.68,-1.63 41.03,-3.2 81.11,-9.14 119.42,-17.28 38.31,-8.13 74.85,-18.47 110.15,-30.79 35.3,-12.33 69.37,-26.65 103.58,-43.74 34.22,-17.08 68.57,-36.92 97.84,-55.83 29.26,-18.91 53.44,-36.89 78.47,-57.95 25.04,-21.06 50.94,-45.2 73.9,-69.01 22.97,-23.81 43,-47.28 62.76,-73.58 19.77,-26.3 39.28,-55.43 56.21,-84.13 16.94,-28.7 31.31,-56.97 43.66,-84.84 12.35,-27.88 22.69,-55.36 32.17,-86.64 9.49,-31.27 18.12,-66.34 24.43,-100.89 6.31,-34.54 10.3,-68.56 12.19,-104.25 1.89,-35.7 1.69,-73.08 -0.3,-107.8 -1.99,-34.72 -5.77,-66.78 -10.67,-97.02 -4.91,-30.23 -10.94,-58.64 -19.87,-88.69 -8.93,-30.05 -20.76,-61.73 -31.16,-91.9 -6.2,-17.99 -11.89,-35.44 -16.71,-56.85z"/>
  </g>
 </g>
</svg>
